<svg width="12" height="12" viewBox="0 0 12 12" fill="none" xmlns="http://www.w3.org/2000/svg">
<g clip-path="url(#clip0_21_357)">
<path d="M5.62499 11.2502H0.75001V0.750192H5.62499C5.832 0.750192 5.99998 0.582179 5.99998 0.375203C5.99998 0.168226 5.83197 0.000213623 5.62499 0.000213623H0.374989C0.168013 0.000213623 0 0.168195 0 0.375203V11.6252C0 11.8322 0.168013 12.0001 0.374989 12.0001H5.62496C5.83197 12.0001 5.99995 11.8321 5.99995 11.6252C5.99998 11.4182 5.83197 11.2502 5.62499 11.2502Z" fill="white"/>
<path d="M11.8912 5.73825L9.30368 3.11364C9.15705 2.96551 8.91968 2.96589 8.77343 3.11364C8.6268 3.26139 8.6268 3.50138 8.77343 3.64913L10.7234 5.62725H3.00109C2.79408 5.62725 2.6261 5.79676 2.6261 6.00601C2.6261 6.21526 2.79411 6.38477 3.00109 6.38477H10.7234L8.77343 8.3629C8.6268 8.51102 8.6268 8.75063 8.77343 8.89839C8.92006 9.04651 9.15743 9.04651 9.30368 8.89839L11.8908 6.27377C12.0356 6.12789 12.0371 5.88376 11.8912 5.73825Z" fill="white"/>
</g>
<defs>
<clipPath id="clip0_21_357">
<rect width="12" height="12" fill="white"/>
</clipPath>
</defs>
</svg>
